<svg width="49" height="35" viewBox="0 0 49 35" fill="none" xmlns="http://www.w3.org/2000/svg">
<circle cx="24.5" cy="17.5" r="17.5" fill="#3C3C3C"/>
<path d="M13.5107 23V11.3636H17.5788C18.3894 11.3636 19.058 11.5038 19.5845 11.7841C20.111 12.0606 20.5031 12.4337 20.7607 12.9034C21.0182 13.3693 21.147 13.8864 21.147 14.4545C21.147 14.9545 21.058 15.3674 20.88 15.6932C20.7057 16.0189 20.4747 16.2765 20.1868 16.4659C19.9027 16.6553 19.594 16.7955 19.2607 16.8864V17C19.6167 17.0227 19.9747 17.1477 20.3345 17.375C20.6944 17.6023 20.9955 17.928 21.2379 18.3523C21.4804 18.7765 21.6016 19.2955 21.6016 19.9091C21.6016 20.4924 21.469 21.017 21.2038 21.483C20.9387 21.9489 20.5201 22.3182 19.9482 22.5909C19.3762 22.8636 18.6319 23 17.7152 23H13.5107ZM14.9197 21.75H17.7152C18.6357 21.75 19.2891 21.572 19.6754 21.2159C20.0656 20.8561 20.2607 20.4205 20.2607 19.9091C20.2607 19.5152 20.1603 19.1515 19.9595 18.8182C19.7588 18.4811 19.4728 18.2121 19.1016 18.0114C18.7304 17.8068 18.291 17.7045 17.7834 17.7045H14.9197V21.75ZM14.9197 16.4773H17.5334C17.9576 16.4773 18.3402 16.3939 18.6811 16.2273C19.0258 16.0606 19.2985 15.8258 19.4993 15.5227C19.7038 15.2197 19.8061 14.8636 19.8061 14.4545C19.8061 13.9432 19.6281 13.5095 19.272 13.1534C18.916 12.7936 18.3516 12.6136 17.5788 12.6136H14.9197V16.4773ZM25.326 11.3636V23H23.9169V11.3636H25.326ZM28.1513 23V11.3636H32.0831C32.996 11.3636 33.7422 11.5284 34.3217 11.858C34.9051 12.1837 35.3369 12.625 35.6172 13.1818C35.8975 13.7386 36.0376 14.3598 36.0376 15.0455C36.0376 15.7311 35.8975 16.3542 35.6172 16.9148C35.3407 17.4754 34.9126 17.9223 34.3331 18.2557C33.7536 18.5852 33.0111 18.75 32.1058 18.75H29.2876V17.5H32.0604C32.6854 17.5 33.1873 17.392 33.5661 17.1761C33.9448 16.9602 34.2195 16.6686 34.3899 16.3011C34.5642 15.9299 34.6513 15.5114 34.6513 15.0455C34.6513 14.5795 34.5642 14.1629 34.3899 13.7955C34.2195 13.428 33.9429 13.1402 33.5604 12.9318C33.1778 12.7197 32.6702 12.6136 32.0376 12.6136H29.5604V23H28.1513Z" fill="white"/>
</svg>
